<svg width="18" height="18" viewBox="0 0 18 18" fill="none" xmlns="http://www.w3.org/2000/svg">
<path d="M10.4584 4.66666C12.4737 4.66666 13.3334 5.52628 13.3334 7.54166H15.25C15.25 4.45103 13.549 2.74999 10.4584 2.74999V4.66666ZM13.7378 9.88286C13.5536 9.71549 13.3116 9.62623 13.0629 9.63392C12.8142 9.64161 12.5782 9.74565 12.4047 9.92407L10.1114 12.2825C9.55944 12.1771 8.44969 11.8312 7.30736 10.6917C6.16503 9.54841 5.81907 8.43578 5.71653 7.88761L8.07307 5.59336C8.25171 5.42003 8.35591 5.18398 8.3636 4.93519C8.37129 4.68639 8.28187 4.44436 8.11428 4.26032L4.57323 0.366613C4.40557 0.181996 4.17254 0.0700123 3.92363 0.0544446C3.67473 0.0388769 3.42956 0.120952 3.24019 0.283238L1.16061 2.0667C0.994924 2.23298 0.896032 2.45429 0.882693 2.68865C0.868318 2.92824 0.594235 8.60349 4.9949 13.0061C8.83398 16.8442 13.6429 17.125 14.9673 17.125C15.1609 17.125 15.2797 17.1192 15.3114 17.1173C15.5457 17.1042 15.7669 17.0049 15.9324 16.8384L17.7149 14.7579C17.8773 14.5687 17.9595 14.3236 17.9441 14.0747C17.9287 13.8258 17.8169 13.5927 17.6324 13.4249L13.7378 9.88286Z" fill="#BDBDBD"/>
</svg>
