<svg width="18" height="14" viewBox="0 0 18 14" fill="none" xmlns="http://www.w3.org/2000/svg">
<path d="M15.6667 0.333328H2.33335C1.41669 0.333328 0.67502 1.08333 0.67502 1.99999L0.666687 12C0.666687 12.9167 1.41669 13.6667 2.33335 13.6667H15.6667C16.5834 13.6667 17.3334 12.9167 17.3334 12V1.99999C17.3334 1.08333 16.5834 0.333328 15.6667 0.333328ZM15.3334 3.87499L9.44169 7.55833C9.17502 7.72499 8.82502 7.72499 8.55835 7.55833L2.66669 3.87499C2.58313 3.82809 2.50995 3.76471 2.45159 3.68871C2.39324 3.6127 2.35091 3.52564 2.32717 3.4328C2.30343 3.33996 2.29877 3.24327 2.31348 3.14858C2.3282 3.05389 2.36197 2.96317 2.41276 2.88191C2.46354 2.80065 2.53029 2.73054 2.60896 2.67582C2.68763 2.62111 2.77658 2.58292 2.87043 2.56358C2.96429 2.54423 3.06109 2.54413 3.15498 2.56328C3.24888 2.58244 3.33791 2.62044 3.41669 2.67499L9.00002 6.16666L14.5834 2.67499C14.6621 2.62044 14.7512 2.58244 14.8451 2.56328C14.939 2.54413 15.0358 2.54423 15.1296 2.56358C15.2235 2.58292 15.3124 2.62111 15.3911 2.67582C15.4698 2.73054 15.5365 2.80065 15.5873 2.88191C15.6381 2.96317 15.6718 3.05389 15.6866 3.14858C15.7013 3.24327 15.6966 3.33996 15.6729 3.4328C15.6491 3.52564 15.6068 3.6127 15.5484 3.68871C15.4901 3.76471 15.4169 3.82809 15.3334 3.87499Z" fill="#BDBDBD"/>
</svg>
